<?xml version="1.0" encoding="UTF-8"?>
<!-- Created with Inkscape (http://www.inkscape.org/) -->
<svg width="20" height="20" version="1.1" viewBox="0 0 5.2917 5.2917" xmlns="http://www.w3.org/2000/svg">
 <path d="m1.3229 0c-0.73289 1.5666e-16 -1.3229 0.59002-1.3229 1.3229v0.79375h0.79375v-0.52917c0-0.43974 0.35401-0.79375 0.79375-0.79375h0.52917v-0.79375h-0.79375zm1.8521 0v0.79375h0.52917c0.43974 0 0.79375 0.35401 0.79375 0.79375v0.52917h0.79375v-0.79375c0-0.73289-0.59002-1.3229-1.3229-1.3229h-0.79375zm-3.175 3.175v0.79375c1.5666e-16 0.73289 0.59002 1.3229 1.3229 1.3229h0.79375v-0.79375h-0.52917c-0.43974 0-0.79375-0.35401-0.79375-0.79375v-0.52917h-0.79375zm4.4979 0v0.52917c0 0.43974-0.35401 0.79375-0.79375 0.79375h-0.52917v0.79375h0.79375c0.73289 0 1.3229-0.59002 1.3229-1.3229v-0.79375h-0.79375z" fill="#1c2f33" stroke-width="1.2"/>
</svg>
